# xmcd CD database file
#
# Track frame offsets:
#	150
#	20050
#	38150
#
# Disc length: 772 seconds
#
# Revision: 0
# Processed by: cddbd v1.5.1PL0 Copyright (c) Steve Scherf et al.
# Submitted via: CDex 1.51
#
DISCID=1e030203
DTITLE=北出菜奈 - 悲しみのキズ
DYEAR=2005
DGENRE=Pop
TTITLE0=悲しみのキズ
TTITLE1=Call me
TTITLE2=悲しみのキズ (Instrumental)
EXTD=YEAR: 2005/07/20
EXTT0=
EXTT1=
EXTT2=
PLAYORDER=
